# xmcd
#
# Track frame offsets: 
#        150
#        11597
#        34691
#        52186
#        66996
#        82278
#        98634
#        119611
#        130348
#        146852
#        158295
#        179253
#        189996
#
# Disc length: 2751 seconds
#
# Revision: 1
# Processed by: cddbd v1.5.2PL0 Copyright (c) Steve Scherf et al.
# Submitted via: ExactAudioCopy v1.0b3
#
DISCID=b60abd0d
DTITLE=MOUNTAIN - CLIMBING (LIMITED EDITION DIGIPAK)
DYEAR=1970
DGENRE=Classic Rock
TTITLE0=Mississippi Queen
TTITLE1=Theme For An Imaginary Western
TTITLE2=Never In My Life
TTITLE3=Silver Paper
TTITLE4=For Yasgur's Farm
TTITLE5=To My Friend
TTITLE6=The Laird
TTITLE7=Sittin' On A Rainbow
TTITLE8=Boys In The Band
TTITLE9=Mississippi Queen (Single Version)
TTITLE10=The Laird (Single Version)
TTITLE11=Sittin' On A Rainbow (Single Version)
TTITLE12=To My Friend (Single Version)
EXTD=
EXTT0=
EXTT1=
EXTT2=
EXTT3=
EXTT4=
EXTT5=
EXTT6=
EXTT7=
EXTT8=
EXTT9=
EXTT10=
EXTT11=
EXTT12=
PLAYORDER=
